<?xml version="1.0" encoding="UTF-8" standalone="no"?>
<svg
   width="62mm"
   height="18mm"
   viewBox="0 0 234.33071 68.031496"
   fill="none"
   version="1.1"
   id="svg27"
   sodipodi:docname="logo-indiafoss.svg"
   inkscape:version="1.3.1 (9b9bdc1480, 2023-11-25, custom)"
   xmlns:inkscape="http://www.inkscape.org/namespaces/inkscape"
   xmlns:sodipodi="http://sodipodi.sourceforge.net/DTD/sodipodi-0.dtd"
   xmlns="http://www.w3.org/2000/svg"
   xmlns:svg="http://www.w3.org/2000/svg">
  <defs
     id="defs27" />
  <sodipodi:namedview
     id="namedview27"
     pagecolor="#ffffff"
     bordercolor="#000000"
     borderopacity="0.25"
     inkscape:showpageshadow="2"
     inkscape:pageopacity="0.0"
     inkscape:pagecheckerboard="0"
     inkscape:deskcolor="#d1d1d1"
     showgrid="false"
     inkscape:zoom="2.8984003"
     inkscape:cx="111.61329"
     inkscape:cy="35.709353"
     inkscape:window-width="1550"
     inkscape:window-height="808"
     inkscape:window-x="91"
     inkscape:window-y="109"
     inkscape:window-maximized="0"
     inkscape:current-layer="svg27"
     inkscape:document-units="mm" />
  <path
     style="fill:#333333;fill-opacity:1;stroke:none;stroke-width:8.40292"
     d="m 197.37891,53.429688 v 5.779296 3.853516 h 6.92382 v 5.779297 h 4.61719 V 63.0625 59.208984 53.429688 h -4.61719 v 5.779296 h -2.30859 v -5.779296 z"
     id="path55" />
  <path
     style="fill:#333333;fill-opacity:1;stroke:none;stroke-width:8.40292"
     d="m 183.5293,53.429688 v 3.851562 h 6.92382 v 1.927734 h -6.92382 v 2.890625 2.888672 3.853516 h 11.54101 v -3.853516 h -6.92578 V 63.0625 h 6.92578 v -3.853516 -2.890625 -2.888671 z"
     id="path54" />
  <path
     style="fill:#333333;fill-opacity:1;stroke:none;stroke-width:8.40292"
     d="m 169.67969,53.429688 v 2.888671 8.669922 3.853516 H 181.2207 V 64.988281 57.28125 53.429688 Z m 4.61523,3.851562 h 2.3086 v 7.707031 h -2.3086 z"
     id="path53" />
  <path
     style="fill:#333333;fill-opacity:1;stroke:none;stroke-width:8.40292"
     d="m 155.82812,53.429688 v 3.851562 h 6.92579 v 1.927734 h -6.92579 v 2.890625 2.888672 3.853516 h 11.54297 v -3.853516 h -6.92578 V 63.0625 h 6.92578 v -3.853516 -2.890625 -2.888671 z"
     id="path52" />
  <path
     style="fill:#333333;fill-opacity:1;stroke:none;stroke-width:8.40292"
     d="m 194.36719,19.712891 v 2.685547 13.599609 h 13.3164 v 5.230469 h -13.3164 v 5.544922 h 16.83789 3.32617 V 44.064453 30.466797 H 201.2168 v -5.222656 h 13.31445 v -5.53125 h -16.83789 z"
     id="path51" />
  <path
     style="fill:#333333;fill-opacity:1;stroke:none;stroke-width:8.40292"
     d="m 169.8457,19.712891 v 2.685547 13.599609 h 13.32422 v 5.230469 H 169.8457 v 5.544922 h 16.83789 3.32618 V 44.064453 30.466797 h -13.31641 v -5.222656 h 13.31641 v -5.53125 h -16.82813 z"
     id="path50" />
  <path
     style="fill:#333333;fill-opacity:1;stroke:none;stroke-width:8.40292"
     d="m 145.33398,19.712891 v 27.060547 h 20.16407 V 19.712891 Z m 6.8379,5.53125 h 6.47656 v 15.984375 h -6.47656 z"
     id="path49" />
  <path
     style="fill:#333333;fill-opacity:1;stroke:none;stroke-width:8.40292"
     d="m 124.91016,19.712891 v 27.060547 h 6.84765 V 36.005859 h 9.98828 v -5.53125 h -9.98828 v -5.230468 h 9.98828 v -5.53125 z"
     id="path48" />
  <path
     style="fill:#333333;fill-opacity:1;stroke:none;stroke-width:8.40292"
     d="m 91.810547,19.712891 v 27.060547 h 0.0098 6.830079 V 36.011719 h 6.457034 v 10.761719 h 6.83007 V 19.712891 Z m 6.849609,5.53125 h 6.457034 v 4.908203 h -6.457034 z"
     id="path47" />
  <path
     style="fill:#333333;fill-opacity:1;stroke:none;stroke-width:8.40292"
     d="m 80.214844,19.712891 v 26.957031 h 7.255859 V 19.712891 Z"
     id="path46" />
  <path
     style="fill:#333333;fill-opacity:1;stroke:none;stroke-width:8.40292"
     d="M 55.740234,19.712891 V 46.773438 H 72.548828 V 44.064453 H 75.875 V 22.398438 h -3.326172 v -2.685547 z m 6.830078,5.53125 h 6.457032 v 15.984375 h -6.457032 z"
     id="path45" />
  <path
     style="fill:#333333;fill-opacity:1;stroke:none;stroke-width:8.40292"
     d="m 31.246094,19.712891 v 27.060547 h 6.830078 V 25.244141 h 6.457031 v 21.529297 h 6.839844 V 19.712891 Z"
     id="path44" />
  <path
     style="fill:#333333;fill-opacity:1;stroke:none;stroke-width:8.40292"
     d="m 19.640625,19.712891 v 26.957031 h 7.255859 V 19.712891 Z"
     id="path43" />
  <path
     style="fill:#333333;fill-opacity:1;stroke:none;stroke-width:8.40292"
     d="M 3.4824219,7.1894531 V 12.96875 53.429688 59.208984 H 10.40625 150.05859 V 53.429688 H 10.40625 V 12.96875 h 213.51758 v 40.460938 h -9.23438 v 5.779296 h 9.23438 6.92578 V 53.429688 12.96875 7.1894531 H 223.92383 10.40625 Z"
     id="rect58" />
  <g
     id="g62">
    <path
       style="font-size:24.0452px;font-family:'FFF Forward';-inkscape-font-specification:'FFF Forward';fill:#ff0000;stroke-width:4.26001"
       d="m -31.682905,52.02789 h -6.179617 V 39.981245 h -6.0113 V 21.779028 h 6.179617 v 12.0226 h 5.842983 v -12.0226 h 6.179617 v 18.202217 h -6.0113 z"
       transform="scale(-1.1115761,0.89962351)"
       id="path62" />
    <path
       style="font-size:24.0452px;font-family:'FFF Forward';-inkscape-font-specification:'FFF Forward';fill:#ff0000;stroke-width:4.26001"
       d="m -58.73371,27.958645 v 5.842983 h 2.837333 V 27.958645 Z M -64.913327,52.02789 V 21.779028 h 15.196567 v 15.02825 h 3.00565 V 52.02789 Z m 6.179617,-6.203662 h 5.842983 v -5.842983 h -5.842983 z"
       transform="scale(-1.1115761,0.89962351)"
       id="path61" />
    <path
       style="font-size:24.0452px;font-family:'FFF Forward';-inkscape-font-specification:'FFF Forward';fill:#ff0000;stroke-width:4.26001"
       d="m -88.790114,45.824228 h 5.842983 V 27.958645 h -5.842983 z m -6.179617,6.203662 V 21.779028 h 15.196567 v 3.00565 h 3.00565 v 24.213517 h -3.00565 v 3.029695 z"
       transform="scale(-1.1115761,0.89962351)"
       id="path60" />
    <path
       style="font-size:24.0452px;font-family:'FFF Forward';-inkscape-font-specification:'FFF Forward';fill:#ff0000;stroke-width:4.26001"
       d="M -97.807016,52.02789 H -113.00358 V 21.779028 h 15.196564 v 6.179617 h -9.016954 v 5.842983 h 9.016954 v 6.179617 h -9.016954 v 5.842983 h 9.016954 z"
       transform="scale(-1.1115761,0.89962351)"
       id="path59" />
    <path
       style="font-size:24.0452px;font-family:'FFF Forward';-inkscape-font-specification:'FFF Forward';fill:#ff0000;stroke-width:4.26001"
       d="m -121.85217,52.02789 h -6.17962 V 27.958645 h -6.0113 v -6.179617 h 18.20222 v 6.179617 h -6.0113 z"
       transform="scale(-1.1115761,0.89962351)"
       id="path58" />
    <path
       style="font-size:24.0452px;font-family:'FFF Forward';-inkscape-font-specification:'FFF Forward';fill:#ff0000;stroke-width:4.26001"
       d="m -136.88038,52.02789 h -6.17961 V 21.779028 h 6.17961 z"
       transform="scale(-1.1115761,0.89962351)"
       id="path57" />
    <path
       style="font-size:24.0452px;font-family:'FFF Forward';-inkscape-font-specification:'FFF Forward';fill:#ff0000;stroke-width:4.26001"
       d="m -157.91988,52.02789 h -6.17962 V 21.779028 h 18.20222 V 52.02789 h -6.17962 V 27.958645 h -5.84298 z"
       transform="scale(-1.1115761,0.89962351)"
       id="path56" />
    <path
       style="font-size:24.0452px;font-family:'FFF Forward';-inkscape-font-specification:'FFF Forward';fill:#ff0000;stroke-width:4.26001"
       d="M -182.13335,52.02789 V 48.998195 H -185.139 V 21.779028 h 6.17961 v 24.0452 h 5.84299 v -24.0452 h 6.17961 v 27.219167 h -3.00565 v 3.029695 z m -3.00565,-3.029695 h 3.00565 v 3.029695 h -3.00565 z m 15.19656,0 h 3.00565 v 2.933514 h -3.00565 z"
       transform="scale(-1.1115761,0.89962351)"
       id="text27" />
  </g>
  <path
     style="fill:#ff0000;fill-opacity:1;stroke:none;stroke-width:8.40292"
     d="m 167.36913,53.429688 v 5.779296 3.853516 h -6.92382 v 5.779297 h -4.61719 V 63.0625 59.208984 53.429688 h 4.61719 v 5.779296 h 2.30859 v -5.779296 z"
     id="path63" />
  <path
     style="fill:#ff0000;fill-opacity:1;stroke:none;stroke-width:8.40292"
     d="m 181.21874,53.429688 v 3.851562 h -6.92382 v 1.927734 h 6.92382 v 2.890625 2.888672 3.853516 h -11.54101 v -3.853516 h 6.92578 V 63.0625 h -6.92578 v -3.853516 -2.890625 -2.888671 z"
     id="path64" />
  <path
     style="fill:#ff0000;fill-opacity:1;stroke:none;stroke-width:8.40292"
     d="m 195.06835,53.429688 v 2.888671 8.669922 3.853516 H 183.52734 V 64.988281 57.28125 53.429688 Z m -4.61523,3.851562 h -2.3086 v 7.707031 h 2.3086 z"
     id="path65" />
  <path
     style="fill:#ff0000;fill-opacity:1;stroke:none;stroke-width:8.40292"
     d="m 208.91992,53.429688 v 3.851562 h -6.92579 v 1.927734 h 6.92579 v 2.890625 2.888672 3.853516 h -11.54297 v -3.853516 h 6.92578 V 63.0625 h -6.92578 v -3.853516 -2.890625 -2.888671 z"
     id="path66" />
  <path
     style="fill:#ff0000;fill-opacity:1;stroke:none;stroke-width:8.40292"
     d="M 3.4824219,7.1894531 V 12.96875 53.429688 59.208984 H 10.40625 150.05859 V 53.429688 H 10.40625 V 12.96875 h 213.51758 v 40.460938 h -9.23438 v 5.779296 h 9.23438 6.92578 V 53.429688 12.96875 7.1894531 H 223.92383 10.40625 Z"
     id="path67" />
</svg>
