<svg width="579" height="188" viewBox="0 0 579 188" fill="none" xmlns="http://www.w3.org/2000/svg">
<path d="M150.388 103.797H166.824V55.0532H150.388V103.797ZM133.005 120.731V38.1875H175.788V46.38H184.254V112.447H175.788V120.708H133.005V120.731Z" fill="#1E1E1E"/>
<path d="M59.5956 38.1875H41.125V120.388H59.5956V38.1875Z" fill="#1E1E1E"/>
<path d="M213.768 38.1875H195.298V120.388H213.768V38.1875Z" fill="#1E1E1E"/>
<path d="M88.0698 120.708H70.6635V38.1875H121.889V120.708H104.483V55.0532H88.0462V120.708H88.0698Z" fill="#1E1E1E"/>
<path fill-rule="evenodd" clip-rule="evenodd" d="M224.837 120.708H242.22V87.892H258.656V120.708H276.039V38.1875H224.813V120.708H224.837ZM258.68 70.0194V55.0532H242.243V70.0194H258.68Z" fill="#1E1E1E"/>
<path d="M326.484 120.708H309.054V38.1875H351.908V55.0532H326.484V71.0035H351.908V87.8691H326.484V120.731V120.708Z" fill="#1E1E1E"/>
<path d="M361.037 38.1875V120.708H412.357V38.1875H361.037ZM394.927 103.797H378.443V55.0532H394.927V103.797Z" fill="#1E1E1E"/>
<path d="M474.745 55.0532V38.1875H431.915H423.425V46.38V87.8462H457.338V103.797H423.425V120.708H466.278H474.745V112.447V70.9806H440.855V55.0532H474.745Z" fill="#1E1E1E"/>
<path d="M537.158 55.0532V38.1875H494.304H485.838V46.38V87.8462H519.728V103.797H485.838V120.708H528.691H537.158V112.447V70.9806H503.268V55.0532H537.158Z" fill="#1E1E1E"/>
<path fill-rule="evenodd" clip-rule="evenodd" d="M578.688 17.625V141V158.625H561.062H537.562V141H561.062V17.625L17.625 17.625V141L373.062 141V158.625L17.625 158.625H0V141V17.625V0L17.625 1.66409e-05H561.062H578.688V17.625Z" fill="#1E1E1E"/>
<rect x="387.75" y="141" width="29.375" height="11.75" fill="#1E1E1E"/>
<rect x="458.25" y="141" width="29.375" height="11.75" fill="#1E1E1E"/>
<rect x="423" y="141" width="29.375" height="11.75" fill="#1E1E1E"/>
<rect x="387.75" y="158.625" width="29.375" height="11.75" fill="#1E1E1E"/>
<rect x="458.25" y="158.625" width="29.375" height="11.75" fill="#1E1E1E"/>
<rect x="493.5" y="158.625" width="29.375" height="11.75" fill="#1E1E1E"/>
<rect x="405.375" y="149.812" width="11.75" height="8.8125" fill="#1E1E1E"/>
<rect x="475.875" y="149.812" width="11.75" height="8.8125" fill="#1E1E1E"/>
<rect x="511.125" y="141" width="11.75" height="17.625" fill="#1E1E1E"/>
<rect x="440.625" y="152.75" width="11.75" height="23.5" fill="#1E1E1E"/>
<rect x="387.75" y="167.438" width="11.75" height="8.8125" fill="#1E1E1E"/>
<rect x="458.25" y="167.438" width="11.75" height="8.8125" fill="#1E1E1E"/>
<rect x="493.5" y="141" width="11.75" height="17.625" fill="#1E1E1E"/>
<rect x="423" y="149.812" width="11.75" height="26.4375" fill="#1E1E1E"/>
<rect x="387.75" y="176.25" width="29.375" height="11.75" fill="#1E1E1E"/>
<rect x="458.25" y="176.25" width="29.375" height="11.75" fill="#1E1E1E"/>
<rect x="511.125" y="170.375" width="11.75" height="17.625" fill="#1E1E1E"/>
<rect x="423" y="176.25" width="29.375" height="11.75" fill="#1E1E1E"/>
</svg>
